<?xml version="1.0" standalone="no"?>
<!DOCTYPE svg PUBLIC "-//W3C//DTD SVG 20010904//EN"
 "http://www.w3.org/TR/2001/REC-SVG-20010904/DTD/svg10.dtd">
<svg version="1.0" xmlns="http://www.w3.org/2000/svg"
 width="180.000000pt" height="180.000000pt" viewBox="0 0 180.000000 180.000000"
 preserveAspectRatio="xMidYMid meet">
<metadata>
Created by potrace 1.14, written by Peter Selinger 2001-2017
</metadata>
<g transform="translate(0.000000,180.000000) scale(0.100000,-0.100000)"
fill="#000000" stroke="none">
<path d="M800 1396 c-253 -48 -439 -273 -440 -532 0 -68 34 -196 66 -253 126
-218 367 -322 604 -262 102 26 175 67 250 142 126 127 182 309 146 479 -61
291 -340 481 -626 426z m235 -22 c172 -44 318 -188 370 -364 23 -78 21 -209
-4 -290 -59 -189 -208 -325 -403 -366 -222 -47 -465 73 -566 280 -43 87 -55
140 -55 231 0 237 160 449 383 509 73 19 202 20 275 0z"/>
<path d="M874 1357 c-3 -8 -4 -32 -2 -53 3 -34 6 -39 27 -39 13 0 27 7 29 15
5 13 3 13 -12 1 -22 -18 -31 -8 -31 36 0 31 2 34 23 30 14 -3 21 0 19 7 -6 17
-46 19 -53 3z"/>
<path d="M800 1340 c0 -11 -4 -20 -10 -20 -5 0 -10 7 -10 15 0 8 -7 15 -15 15
-21 0 -19 -9 6 -29 11 -9 22 -29 22 -44 1 -15 8 -27 15 -27 9 0 11 7 6 23 -4
12 -7 27 -7 32 0 6 3 20 7 33 5 13 3 22 -3 22 -6 0 -11 -9 -11 -20z"/>
<path d="M980 1336 c0 -14 -4 -36 -10 -51 -10 -27 -7 -30 32 -37 9 -2 16 1 15
7 -1 5 -9 10 -17 10 -8 0 -15 7 -15 15 0 9 7 14 18 12 10 -2 17 3 17 12 0 10
-6 13 -16 9 -12 -4 -15 -2 -12 8 3 8 15 14 27 13 28 -1 27 12 -1 20 -35 9 -38
8 -38 -18z"/>
<path d="M1085 1300 c-4 -17 -14 -37 -23 -46 -15 -15 -14 -18 3 -30 22 -17 45
-18 45 -3 0 5 -4 8 -9 5 -5 -3 -14 1 -21 9 -12 15 -10 17 19 19 8 1 16 7 19
15 3 8 0 11 -6 7 -15 -9 -23 7 -12 24 7 12 12 11 29 -4 12 -11 21 -14 21 -8 0
6 -13 18 -29 27 -29 15 -30 14 -36 -15z"/>
<path d="M653 1303 c-9 -3 -6 -13 8 -32 11 -15 22 -36 24 -47 2 -10 4 -20 4
-22 1 -1 15 5 31 13 17 9 28 20 24 26 -4 6 -11 6 -21 -3 -12 -10 -18 -8 -33
12 -11 14 -20 32 -22 41 -2 9 -9 14 -15 12z"/>
<path d="M793 1226 c-53 -17 -122 -57 -147 -85 -28 -31 -12 -26 38 13 63 48
136 71 226 71 63 -1 86 -6 140 -31 36 -17 83 -46 103 -64 21 -18 40 -30 43
-27 9 8 -96 88 -146 110 -57 26 -196 33 -257 13z"/>
<path d="M1210 1063 c0 -5 7 -18 15 -30 8 -12 22 -50 31 -84 43 -167 -43 -342
-204 -417 -49 -23 -70 -27 -152 -27 -85 0 -101 3 -155 29 -64 32 -145 109
-165 157 -7 16 -16 29 -21 29 -17 0 23 -63 74 -117 184 -194 503 -140 615 106
37 80 42 187 13 274 -19 57 -51 107 -51 80z"/>
<path d="M573 1048 c-6 -7 -13 -22 -16 -33 -6 -17 -4 -17 13 4 11 13 20 27 20
32 0 12 -6 11 -17 -3z"/>
<path d="M528 888 c-7 -16 0 -108 8 -117 9 -10 10 7 5 69 -4 39 -9 58 -13 48z"/>
<path d="M432 843 c2 -10 10 -18 18 -18 22 0 18 29 -3 33 -14 3 -18 -1 -15
-15z"/>
<path d="M1336 845 c-3 -9 1 -18 10 -22 19 -7 39 11 30 26 -10 16 -33 13 -40
-4z"/>
<path d="M815 688 c-34 -13 -63 -17 -92 -13 l-42 6 15 -45 c11 -31 26 -52 49
-66 40 -25 50 -25 100 0 22 11 32 18 23 15 -10 -2 -18 0 -18 5 0 5 -8 7 -17 4
-15 -5 -15 -3 1 10 11 9 23 16 27 16 13 0 19 34 11 61 l-7 25 -50 -18z m23
-40 c-2 -6 -13 -12 -24 -14 -19 -3 -19 -3 0 12 24 17 29 18 24 2z"/>
<path d="M1177 583 c-14 -13 -6 -38 20 -65 31 -33 41 -34 59 -10 11 15 8 21
-19 50 -30 31 -47 39 -60 25z m67 -73 c-13 -13 -69 44 -59 60 5 8 17 3 38 -19
21 -21 28 -34 21 -41z"/>
<path d="M582 548 c-27 -27 -34 -30 -42 -18 -5 8 -6 18 -4 22 3 4 0 8 -6 8
-17 0 -8 -31 12 -44 14 -8 23 -5 46 17 15 15 31 27 35 27 15 0 6 -27 -20 -54
l-27 -29 23 -18 c13 -11 28 -16 34 -12 6 4 2 10 -11 14 -14 5 -20 14 -16 24 7
17 24 20 24 4 0 -5 5 -7 10 -4 6 3 10 11 10 16 0 6 -4 7 -10 4 -12 -7 -13 5
-1 23 6 11 11 10 25 -3 9 -10 20 -14 23 -11 4 4 -3 13 -15 21 -11 9 -28 22
-36 30 -19 19 -16 20 -54 -17z"/>
<path d="M1117 529 c-15 -11 -24 -25 -21 -31 4 -6 10 -5 15 3 7 11 14 7 33
-16 13 -16 22 -33 19 -37 -2 -5 0 -8 6 -8 5 0 13 5 16 10 3 6 2 10 -2 10 -15
0 -48 63 -35 68 13 4 17 22 5 22 -5 0 -20 -10 -36 -21z"/>
<path d="M1067 503 c-3 -5 4 -30 17 -55 17 -34 27 -44 37 -37 8 5 9 9 3 9 -6
0 -20 21 -31 46 -11 26 -23 42 -26 37z"/>
<path d="M686 461 c-30 -31 -34 -40 -22 -44 10 -4 16 -1 16 8 0 8 5 15 10 15
6 0 10 7 10 15 0 8 5 15 10 15 7 0 7 -6 0 -20 -6 -11 -8 -20 -4 -20 3 0 1 -6
-5 -14 -9 -10 -8 -15 3 -19 10 -4 15 7 20 45 4 28 5 52 3 54 -2 2 -20 -14 -41
-35z"/>
<path d="M765 471 c3 -5 -1 -28 -9 -50 -12 -35 -12 -41 0 -41 9 0 14 11 14 31
0 37 15 30 23 -11 9 -41 23 -38 31 6 4 19 10 42 13 50 3 8 1 14 -5 14 -5 0
-13 -17 -18 -37 l-7 -38 -10 43 c-6 25 -16 42 -24 42 -8 0 -12 -4 -8 -9z"/>
<path d="M993 474 c-9 -4 -8 -15 3 -46 7 -22 11 -44 8 -49 -3 -5 2 -9 11 -9
11 0 14 6 9 25 -5 19 -2 25 10 25 9 0 16 -8 16 -20 0 -14 5 -18 16 -13 9 3 11
8 6 12 -6 3 -14 22 -19 41 -9 34 -30 46 -60 34z m43 -15 c3 -6 1 -16 -5 -22
-9 -9 -14 -8 -21 3 -9 15 -4 30 10 30 5 0 12 -5 16 -11z"/>
<path d="M929 463 c-11 -3 -15 -16 -15 -53 1 -48 2 -50 29 -50 34 0 40 14 29
65 -8 39 -15 46 -43 38z m31 -28 c0 -8 -7 -15 -15 -15 -8 0 -15 7 -15 15 0 8
7 15 15 15 8 0 15 -7 15 -15z m4 -40 c3 -9 -1 -18 -10 -22 -19 -7 -28 2 -21
22 8 19 23 19 31 0z"/>
</g>
</svg>
